<svg xmlns="http://www.w3.org/2000/svg" width="11.55" height="15.77" viewBox="0 0 11.55 15.77">
  <path id="bag" d="M6.455,4.019H4.243V3.112a3.112,3.112,0,0,0-6.223,0v.907H-4.375a.36.36,0,0,0-.359.359v9.6A1.793,1.793,0,0,0-2.941,15.77H5.024a1.793,1.793,0,0,0,1.792-1.792v-9.6a.363.363,0,0,0-.362-.359Zm-7.722-.911a2.395,2.395,0,1,1,4.789,0v.907H-1.267ZM6.1,13.978a1.079,1.079,0,0,1-1.075,1.076H-2.945A1.078,1.078,0,0,1-4.02,13.978V4.736h2.036V6.2a.359.359,0,0,0,.358.359A.359.359,0,0,0-1.267,6.2V4.736H3.526V6.2a.358.358,0,1,0,.717,0V4.736H6.1Zm0,0" transform="translate(4.734 0)"/>
</svg>
