<svg id="user" xmlns="http://www.w3.org/2000/svg" width="13.669" height="16.384" viewBox="0 0 13.669 16.384">
  <path id="Trazado_7" data-name="Trazado 7" d="M90.978,7.892a3.818,3.818,0,0,0,2.79-1.156,3.818,3.818,0,0,0,1.156-2.79,3.819,3.819,0,0,0-1.156-2.79,3.945,3.945,0,0,0-5.58,0,3.818,3.818,0,0,0-1.156,2.79,3.818,3.818,0,0,0,1.156,2.79A3.819,3.819,0,0,0,90.978,7.892Zm0,0" transform="translate(-84.247 0)" fill="#414141"/>
  <path id="Trazado_8" data-name="Trazado 8" d="M13.636,252a9.746,9.746,0,0,0-.133-1.035,8.158,8.158,0,0,0-.255-1.041,5.141,5.141,0,0,0-.428-.971,3.663,3.663,0,0,0-.645-.841,2.845,2.845,0,0,0-.927-.582,3.2,3.2,0,0,0-1.183-.214,1.2,1.2,0,0,0-.641.272c-.192.125-.417.27-.668.431a3.828,3.828,0,0,1-.864.381,3.357,3.357,0,0,1-2.115,0,3.819,3.819,0,0,1-.864-.381c-.249-.159-.474-.3-.669-.431a1.2,1.2,0,0,0-.641-.272,3.2,3.2,0,0,0-1.183.214,2.842,2.842,0,0,0-.927.582,3.664,3.664,0,0,0-.645.841,5.151,5.151,0,0,0-.428.971,8.176,8.176,0,0,0-.254,1.041A9.713,9.713,0,0,0,.033,252c-.022.314-.033.639-.033.967a2.721,2.721,0,0,0,.808,2.058,2.909,2.909,0,0,0,2.082.759h7.889a2.908,2.908,0,0,0,2.082-.759,2.719,2.719,0,0,0,.808-2.058c0-.33-.011-.656-.033-.968Zm0,0" transform="translate(0 -239.402)" fill="#414141"/>
</svg>
